<svg xmlns="http://www.w3.org/2000/svg" width="800" height="800" viewBox="0 0 32 32"><defs><style>.cls-1{fill:#77acf1}.cls-2{fill:#04009a}</style></defs><g id="_15._Consultation" data-name="15. Consultation"><rect width="8" height="4" x="12" y="24" class="cls-1" rx="1"/><path d="M31,24V7a3,3,0,0,0-3-3H27a1,1,0,0,0,0,2h1a1,1,0,0,1,1,1V24H3V7A1,1,0,0,1,4,6H5A1,1,0,0,0,5,4H4A3,3,0,0,0,1,7V24a1,1,0,0,0-1,1v2a5,5,0,0,0,5,5H27a5,5,0,0,0,5-5V25A1,1,0,0,0,31,24Zm-1,3a3,3,0,0,1-3,3H5a3,3,0,0,1-3-3V26H30Z" class="cls-2"/><path d="M26,10a3,3,0,1,0-4,2.82V14a4,4,0,0,1-8,0V10a1,1,0,0,0-2,0v4a6,6,0,0,0,12,0V12.82A3,3,0,0,0,26,10Zm-3,1a1,1,0,1,1,1-1A1,1,0,0,1,23,11Z" class="cls-2"/><path d="M13,10A5,5,0,0,1,8,5V2a2,2,0,0,1,2-2h1a1,1,0,0,1,0,2H10V5a3,3,0,0,0,6,0V2H15a1,1,0,0,1,0-2h1a2,2,0,0,1,2,2V5A5,5,0,0,1,13,10Z" class="cls-1"/></g></svg>